# xmcd
#
# Track frame offsets:
#	150
#	10663
#	24205
#	36633
#	49621
#	64053
#	74364
#	88871
#	100231
#	113679
#	123543
#	133453
#	144766
#	158313
#	170749
#	183353
#	193639
#	205286
#	217532
#	228999
#	240503
#	251912
#	262389
#	271301
#	285684
#
# Disc length: 3981 seconds
#
# Revision: 1
# Processed by: cddbd v1.5.2PL0 Copyright (c) Steve Scherf et al.
# Submitted via: audiograbber 1.83.01
#
DISCID=6b0f8b19
DTITLE=Dean Martin  - King of the Road CD 3
DYEAR=2009
DGENRE=Ballad
TTITLE0=Buona Sera
TTITLE1=Let me go Lover
TTITLE2=Under the Bridges  of Paris
TTITLE3=The naughty Lady of Shady Lane
TTITLE4=Come back to Sorrento
TTITLE5=Long long ago
TTITLE6=I´m yours
TTITLE7=Power your face with sunshine
TTITLE8=That lucky old Sun
TTITLE9=Once in love with Amy
TTITLE10=Zing a zing a zing boom
TTITLE11=Johnny get your girl
TTITLE12=There´s my lover
TTITLE13=Louise
TTITLE14=Wham bam thank you Mam
TTITLE15=Waiting for the Robert E. Lee
TTITLE16=Moments like this
TTITLE17=The Peddlar Man
TTITLE18=I never had a chance
TTITLE19=I´ll gladly make the same mistake again
TTITLE20=Carolina Moon
TTITLE21=Way down yonder in New Orleans
TTITLE22=The Sailor´s Polka
TTITLE23=What could be more beautiful
TTITLE24=Two sleepy people
EXTD=
EXTT0=
EXTT1=
EXTT2=
EXTT3=
EXTT4=
EXTT5=
EXTT6=
EXTT7=
EXTT8=
EXTT9=
EXTT10=
EXTT11=
EXTT12=
EXTT13=
EXTT14=
EXTT15=
EXTT16=
EXTT17=
EXTT18=
EXTT19=
EXTT20=
EXTT21=
EXTT22=
EXTT23=
EXTT24=
PLAYORDER=
